<svg width="40" height="31" viewBox="0 0 40 31" fill="none" xmlns="http://www.w3.org/2000/svg">
<line x1="2.00635" y1="6.79955e-08" x2="2.00635" y2="12.997" stroke="black" stroke-width="4"/>
<line x1="16.7129" y1="2" x2="0.0024128" y2="2" stroke="black" stroke-width="4"/>
<line y1="-2" x2="16.7105" y2="-2" transform="matrix(1 -0.000325329 0.00042492 1 0.00634766 30.9961)" stroke="black" stroke-width="4"/>
<line y1="-2" x2="12.997" y2="-2" transform="matrix(0.00042497 1 -1 0.000325367 0 18.002)" stroke="black" stroke-width="4"/>
<line y1="-2" x2="12.997" y2="-2" transform="matrix(5.61687e-08 1 1 -3.40169e-08 39.8521 0)" stroke="black" stroke-width="4"/>
<line y1="-2" x2="16.7105" y2="-2" transform="matrix(1 0 0 -1 23.1431 0)" stroke="black" stroke-width="4"/>
<line y1="-2" x2="16.7011" y2="-2" transform="matrix(-1 -0.000289344 -0.000477765 1 39.8452 30.9961)" stroke="black" stroke-width="4"/>
<line y1="-2" x2="12.997" y2="-2" transform="matrix(-0.000477822 1 1 0.000289378 39.8521 18.002)" stroke="black" stroke-width="4"/>
</svg>
