<svg width="99" height="37" viewBox="0 0 99 37" fill="none" xmlns="http://www.w3.org/2000/svg">
<path d="M49.0894 0C45.6636 0 42.3781 1.33368 39.9557 3.70764C37.5333 6.08161 36.1724 9.30139 36.1724 12.6587V23.509C36.1724 26.8663 37.5333 30.0861 39.9557 32.46C42.3781 34.834 45.6636 36.1677 49.0894 36.1677C52.5152 36.1677 55.8007 34.834 58.2231 32.46C60.6455 30.0861 62.0064 26.8663 62.0064 23.509V12.6587C62.0064 9.30139 60.6455 6.08161 58.2231 3.70764C55.8007 1.33368 52.5152 0 49.0894 0ZM39.8629 12.6587C39.8625 10.5742 40.597 8.55368 41.942 6.93894C43.2871 5.32421 45.1601 4.21449 47.2441 3.79761V14.4671H39.8629V12.6587ZM58.3158 23.509C58.3158 25.9071 57.3438 28.2069 55.6135 29.9026C53.8832 31.5983 51.5364 32.5509 49.0894 32.5509C46.6424 32.5509 44.2956 31.5983 42.5653 29.9026C40.835 28.2069 39.8629 25.9071 39.8629 23.509V18.0838H58.3158V23.509ZM58.3158 14.4671H50.9347V3.79761C53.0187 4.21449 54.8917 5.32421 56.2368 6.93894C57.5818 8.55368 58.3163 10.5742 58.3158 12.6587V14.4671Z" fill="black"/>
<path fill-rule="evenodd" clip-rule="evenodd" d="M3.88841 6.45139C3.88841 5.42365 4.29764 4.438 5.02609 3.71128C5.75453 2.98455 6.7425 2.57628 7.77268 2.57628C8.80285 2.57628 9.79083 2.98455 10.5193 3.71128C11.2477 4.438 11.6569 5.42365 11.6569 6.45139C11.6569 7.47913 11.2477 8.46478 10.5193 9.19151C9.79083 9.91823 8.80285 10.3265 7.77268 10.3265C6.7425 10.3265 5.75453 9.91823 5.02609 9.19151C4.29764 8.46478 3.88841 7.47913 3.88841 6.45139ZM0.431409 23.5813C0.704522 23.8534 1.07474 24.0063 1.46074 24.0063C1.84674 24.0063 2.21696 23.8534 2.49007 23.5813L6.31608 19.7643L6.31608 32.124C6.31608 32.5094 6.46954 32.879 6.74271 33.1515C7.01587 33.424 7.38636 33.5771 7.77268 33.5771C8.15899 33.5771 8.52948 33.424 8.80265 33.1515C9.07582 32.879 9.22928 32.5094 9.22928 32.124L9.22928 19.7643L13.0553 23.5813C13.3314 23.838 13.6966 23.9777 14.074 23.9711C14.4513 23.9645 14.8114 23.8119 15.0783 23.5457C15.3451 23.2795 15.498 22.9203 15.5047 22.5438C15.5113 22.1673 15.3712 21.803 15.1139 21.5275L8.80201 15.2304L7.77268 14.2016L6.74335 15.2285L0.431409 21.5256C0.296052 21.6605 0.188676 21.8207 0.115417 21.9971C0.0421572 22.1735 0.0044499 22.3625 0.0044499 22.5534C0.0044499 22.7443 0.0421572 22.9334 0.115417 23.1098C0.188676 23.2861 0.296052 23.4464 0.431409 23.5813Z" fill="black"/>
<path fill-rule="evenodd" clip-rule="evenodd" d="M86.5407 29.702C86.5407 30.7298 86.948 31.7154 87.6731 32.4422C88.3981 33.1689 89.3815 33.5771 90.4068 33.5771C91.4322 33.5771 92.4156 33.1689 93.1406 32.4422C93.8657 31.7154 94.273 30.7298 94.273 29.702C94.273 28.6743 93.8657 27.6886 93.1406 26.9619C92.4156 26.2352 91.4322 25.8269 90.4068 25.8269C89.3815 25.8269 88.3981 26.2352 87.6731 26.9619C86.948 27.6886 86.5407 28.6743 86.5407 29.702ZM83.0998 12.5721C83.3717 12.3 83.7402 12.1471 84.1244 12.1471C84.5086 12.1471 84.877 12.3 85.1489 12.5721L88.957 16.3891L88.957 4.02945C88.957 3.64405 89.1098 3.27443 89.3817 3.00191C89.6536 2.72938 90.0223 2.57628 90.4068 2.57628C90.7914 2.57628 91.1601 2.72938 91.432 3.00191C91.7039 3.27443 91.8566 3.64405 91.8566 4.02945L91.8566 16.3891L95.6648 12.5721C95.7975 12.4294 95.9576 12.3148 96.1354 12.2354C96.3133 12.156 96.5052 12.1133 96.6999 12.1098C96.8946 12.1064 97.0879 12.1423 97.2685 12.2154C97.449 12.2885 97.613 12.3972 97.7507 12.5352C97.8883 12.6732 97.9969 12.8376 98.0698 13.0185C98.1427 13.1995 98.1785 13.3933 98.1751 13.5884C98.1716 13.7835 98.129 13.976 98.0498 14.1542C97.9705 14.3325 97.8563 14.4929 97.7139 14.6259L91.4314 20.923L90.4068 21.9518L89.3823 20.9249L83.0998 14.6279C82.9651 14.4929 82.8582 14.3327 82.7853 14.1563C82.7124 13.9799 82.6749 13.7909 82.6749 13.6C82.6749 13.4091 82.7124 13.22 82.7853 13.0437C82.8582 12.8673 82.9651 12.7071 83.0998 12.5721Z" fill="black"/>
</svg>
